<svg width="165" height="31" viewBox="0 0 165 31" fill="none" xmlns="http://www.w3.org/2000/svg">
<path d="M18.3318 18.5092L15.2821 15.5698L18.3318 12.6385V6.76782L9.17432 15.5698L18.3318 24.3718V18.5092Z" fill="white"/>
<path d="M0 0.888672V30.2585H30.5558V0.888672H0ZM26.1931 26.057H4.3627V5.08203H26.1847V26.057H26.1931Z" fill="white"/>
<path d="M37.6379 29.9571V21.0737H40.1454V27.6773H42.4581V21.0737H44.9656V27.6773H47.2782V21.0737H49.7857V29.9571H37.6379Z" fill="white"/>
<path d="M52.1238 29.9571V21.0737H54.6313V24.5017L57.6724 21.0737H60.5781L57.2743 24.7541L60.8407 29.9571H57.9351L55.6224 26.5943L54.6313 27.6773V29.9653H52.1238V29.9571Z" fill="white"/>
<path d="M62.7975 28.8497C61.8148 27.9378 61.3235 26.8304 61.3235 25.5195C61.3235 24.2085 61.8148 23.1012 62.7975 22.1892C63.7802 21.2773 65.0085 20.8213 66.474 20.8213C67.9395 20.8213 69.1679 21.2773 70.1505 22.1892C71.1332 23.1012 71.6245 24.2085 71.6245 25.5195C71.6245 26.8304 71.1332 27.9378 70.1505 28.8497C69.1679 29.7617 67.9395 30.2177 66.474 30.2177C65.0085 30.2177 63.7802 29.7617 62.7975 28.8497ZM64.6527 23.7607C64.1529 24.2411 63.9072 24.8274 63.9072 25.5195C63.9072 26.2116 64.1529 26.7978 64.6527 27.2782C65.1525 27.7587 65.7624 27.9948 66.4825 27.9948C67.2025 27.9948 67.8125 27.7587 68.3123 27.2782C68.8121 26.7978 69.0577 26.2116 69.0577 25.5195C69.0577 24.8274 68.8121 24.2411 68.3123 23.7607C67.8125 23.2803 67.2025 23.0442 66.4825 23.0442C65.7624 23.0442 65.144 23.2803 64.6527 23.7607Z" fill="white"/>
<path d="M72.4463 29.9571V27.7342C72.531 27.7667 72.5988 27.7912 72.6411 27.7993C72.7936 27.84 72.9207 27.8644 73.0393 27.8644C73.2511 27.8644 73.4374 27.8156 73.5984 27.7097C73.7593 27.6039 73.9118 27.4166 74.0558 27.1398C74.1998 26.8629 74.3015 26.4558 74.3777 25.9103C74.454 25.3647 74.4879 24.6889 74.4879 23.8828V21.0818H81.6207V29.9652H79.1132V23.3617H77.0038V23.8665C77.0038 24.8517 76.953 25.7067 76.8429 26.4477C76.7327 27.1886 76.5887 27.7993 76.4024 28.2716C76.216 28.7438 75.9788 29.1265 75.6993 29.4197C75.4112 29.7128 75.1147 29.9163 74.7928 30.0385C74.4794 30.1606 74.1151 30.2176 73.7085 30.2176C73.429 30.2176 73.1325 30.1769 72.836 30.0873C72.6835 30.0466 72.5564 29.9978 72.4463 29.9571Z" fill="white"/>
<path d="M82.8406 29.9571L86.3392 21.0737H89.1093L92.6079 29.9571H89.8971L89.2364 28.0518H86.2037L85.5429 29.9571H82.8406ZM86.8644 26.0895H88.5841L87.7539 23.549H87.7031L86.8644 26.0895Z" fill="white"/>
<path d="M96.9536 29.9571V21.0737H103.688V23.1663H99.4611V24.119H101.24C102.214 24.119 103.011 24.3958 103.62 24.9495C104.23 25.5032 104.535 26.2035 104.535 27.034C104.535 27.8645 104.23 28.5648 103.62 29.1185C103.011 29.6722 102.214 29.949 101.24 29.949H96.9536V29.9571ZM99.4611 27.8645H101.113C101.376 27.8645 101.596 27.7831 101.774 27.6203C101.952 27.4574 102.036 27.262 102.036 27.034C102.036 26.806 101.952 26.6106 101.774 26.4477C101.596 26.2849 101.376 26.2035 101.113 26.2035H99.4611V27.8645Z" fill="white"/>
<path d="M106.221 29.9571V21.0737H108.729V25.9592L112.693 21.0737H114.87V29.9571H112.363V25.0717L108.398 29.9571H106.221Z" fill="white"/>
<path d="M116.285 28.6878L117.734 27.1652C117.878 27.3361 118.056 27.4746 118.284 27.5804C118.759 27.8491 119.276 27.9875 119.843 27.9875C120.284 27.9875 120.614 27.9143 120.834 27.7677C121.054 27.6211 121.165 27.442 121.165 27.2303C121.165 27.0186 121.063 26.8395 120.851 26.6929C120.648 26.5463 120.351 26.473 119.97 26.473H118.784V24.4456H119.775C120.157 24.4456 120.436 24.3804 120.622 24.2583C120.809 24.128 120.902 23.9652 120.902 23.7535C120.902 23.2893 120.504 23.0532 119.716 23.0532C119.335 23.0532 118.937 23.1591 118.513 23.3708C118.378 23.4359 118.234 23.5418 118.064 23.6883L116.616 22.1657C116.878 21.9133 117.183 21.6934 117.513 21.5061C118.267 21.0583 119.115 20.8303 120.046 20.8303C121.156 20.8303 122.029 21.0746 122.664 21.5713C123.299 22.068 123.613 22.6624 123.613 23.3708C123.613 23.9896 123.333 24.4944 122.783 24.8934C122.545 25.0563 122.274 25.1784 121.961 25.2761C122.334 25.3982 122.647 25.5529 122.91 25.7484C123.553 26.2125 123.875 26.7987 123.875 27.499C123.875 28.2725 123.537 28.9158 122.867 29.4369C122.198 29.958 121.258 30.2267 120.046 30.2267C119.038 30.2267 118.106 29.9743 117.276 29.4613C116.895 29.2333 116.565 28.9809 116.285 28.6878Z" fill="white"/>
<path d="M125.62 29.9571V21.0737H128.128V24.3063H131.499V21.0737H134.007V29.9571H131.499V26.5943H128.128V29.9571H125.62Z" fill="white"/>
<path d="M136.345 29.9571V21.0737H143.41V23.2315H138.853V24.5017H142.351V26.5292H138.853V27.7994H143.537V29.9571H136.345Z" fill="white"/>
<path d="M152.483 26.8468L153.999 28.4997C153.703 28.8335 153.355 29.1185 152.966 29.3628C152.102 29.9328 151.102 30.2096 149.967 30.2096C148.493 30.2096 147.273 29.7536 146.29 28.8417C145.308 27.9297 144.816 26.8224 144.816 25.5114C144.816 24.2005 145.308 23.0931 146.29 22.1812C147.273 21.2692 148.501 20.8132 149.967 20.8132C151.077 20.8132 152.068 21.0982 152.94 21.6763C153.33 21.9369 153.66 22.2219 153.931 22.5231L152.415 24.1761C152.212 23.9644 151.992 23.7771 151.746 23.6061C151.17 23.2234 150.585 23.0361 149.975 23.0361C149.255 23.0361 148.645 23.2723 148.146 23.7527C147.646 24.2331 147.4 24.8193 147.4 25.5114C147.4 26.2035 147.646 26.7898 148.146 27.2702C148.645 27.7506 149.255 27.9867 149.975 27.9867C150.577 27.9867 151.17 27.7995 151.771 27.4168C152.034 27.2539 152.271 27.0585 152.483 26.8468Z" fill="white"/>
<path d="M154.423 29.9571L157.921 21.0737H160.691L164.19 29.9571H161.488L160.827 28.0518H157.794L157.133 29.9571H154.423ZM158.446 26.0895H160.166L159.336 23.549H159.285L158.446 26.0895Z" fill="white"/>
<path d="M49.5401 11.1969L52.1238 14.0061C51.6155 14.5679 51.031 15.0564 50.3703 15.4798C48.8963 16.4488 47.1935 16.9292 45.2621 16.9292C42.7546 16.9292 40.6707 16.1557 38.9933 14.6005C37.316 13.0452 36.4858 11.1562 36.4858 8.92517C36.4858 6.69414 37.3245 4.79695 38.9933 3.24988C40.6707 1.69468 42.7546 0.921143 45.2621 0.921143C47.1512 0.921143 48.837 1.40969 50.3279 2.39493C50.9887 2.84276 51.5478 3.32317 52.0137 3.84428L49.4299 6.65343C49.0826 6.29516 48.7014 5.96946 48.2863 5.67633C47.3121 5.02494 46.304 4.69924 45.2706 4.69924C44.0422 4.69924 43.0002 5.10636 42.1531 5.92061C41.306 6.73485 40.8824 7.73637 40.8824 8.91703C40.8824 10.0977 41.306 11.0992 42.1531 11.9135C43.0002 12.7277 44.0422 13.1348 45.2706 13.1348C46.2871 13.1348 47.3121 12.8091 48.3287 12.1577C48.7777 11.8809 49.1758 11.5552 49.5401 11.1969Z" fill="white"/>
<path d="M53.9958 16.4977V1.35278H58.2738V9.68251L65.0254 1.35278H68.7358V16.4896H64.4579V8.16801L57.7063 16.4977H53.9958Z" fill="white"/>
<path d="M71.9551 16.4977V1.35278H76.2331V6.86522H81.9681V1.35278H86.2461V16.4896H81.9681V10.7573H76.2331V16.4896H71.9551V16.4977Z" fill="white"/>
<path d="M89.4565 16.4977V1.35278H101.494V5.03317H93.7345V7.19092H99.6983V10.6515H93.7345V12.8173H101.723V16.4977H89.4565Z" fill="white"/>
<path d="M104.044 16.4977V1.35278H111.135C112.863 1.35278 114.269 1.85762 115.353 2.85914C116.438 3.86066 116.988 5.13088 116.988 6.65352C116.988 8.17615 116.446 9.44638 115.353 10.4479C114.269 11.4494 112.863 11.9543 111.135 11.9543H108.322V16.4977H104.044ZM108.314 8.27386H110.897C111.389 8.27386 111.812 8.11101 112.168 7.78532C112.524 7.45962 112.693 7.08507 112.693 6.65352C112.693 6.22197 112.515 5.83927 112.168 5.51357C111.812 5.18788 111.389 5.02503 110.897 5.02503H108.314V8.27386Z" fill="white"/>
<path d="M119.301 16.4977V1.35278H130.33V5.24487H123.579V16.4896H119.301V16.4977Z" fill="white"/>
<path d="M132.194 16.4977V1.35278H136.472V9.68251L143.224 1.35278H146.934V16.4896H142.656V8.16801L135.905 16.4977H132.194Z" fill="white"/>
<path d="M148.908 16.4981L152.169 10.8717C151.661 10.6437 151.212 10.3262 150.822 9.91904C149.925 9.05594 149.476 7.93228 149.476 6.54807C149.476 5.07428 150.018 3.84477 151.094 2.8514C152.178 1.85802 153.55 1.36133 155.211 1.36133H162.64V16.4981H158.362V11.7429H155.998L153.415 16.4981H148.908ZM155.439 8.06256H158.362V5.03357H155.439C154.948 5.03357 154.541 5.18013 154.228 5.46512C153.914 5.75011 153.754 6.11652 153.754 6.54807C153.754 6.97961 153.914 7.33788 154.228 7.63101C154.541 7.916 154.94 8.06256 155.439 8.06256Z" fill="white"/>
</svg>
