<svg width="156" height="30" viewBox="0 0 156 30" fill="none" xmlns="http://www.w3.org/2000/svg">
<path d="M24.7296 4.62724H4.56234L6.0079 0.888672H26.1751L24.7296 4.62724ZM23.9892 6.51306H3.82194L2.37639 10.2516H22.5436L23.9892 6.51306ZM21.8032 12.1375H1.63598L0.19043 15.9091H20.3576L21.8032 12.1375Z" fill="#8DDDFF"/>
<path d="M72.7858 25.2386H76.382C77.7571 25.2386 78.568 24.9408 79.1674 24.213C79.4494 23.8491 79.8725 23.2535 79.8725 22.0625C79.8725 20.9045 79.4494 20.0774 78.6385 19.4819C78.1449 19.1179 77.475 18.9525 76.3468 18.9525H72.7858V25.2386ZM67.9908 29.0103V6.5127H83.6098L82.2348 10.2843H72.7858V15.2801H76.6288C79.7315 15.2801 81.3533 15.9749 82.4816 16.8682C83.363 17.563 84.8438 19.1179 84.8438 22.1948C84.8438 25.2386 83.2925 26.8928 82.0232 27.753C80.5424 28.7125 78.9558 29.0103 75.7474 29.0103H67.9908ZM54.1699 29.0103V10.2843H47.2242V6.5127H66.4747L65.0997 10.2843H58.9649V29.0103H54.1699ZM34.9546 15.5117H37.6694C38.5156 15.5117 38.9034 15.5117 39.3265 15.3794C40.4547 15.0816 41.1599 14.1222 41.1599 12.8319C41.1599 11.31 40.4195 10.6483 39.3265 10.3505C38.8681 10.2182 38.4098 10.1851 37.4931 10.1851H34.9546V15.5117ZM34.9898 19.4157V25.3379H38.304C39.2912 25.3379 40.2079 25.2717 40.8778 24.6762C41.5477 24.0806 41.8298 23.3528 41.8298 22.3933C41.8298 21.6655 41.6182 20.9376 41.1951 20.4413C40.49 19.6142 39.6086 19.4157 38.1277 19.4157H34.9898ZM42.6759 17.0336V17.0998C43.5926 17.3975 44.4741 17.96 44.9324 18.2908C46.3427 19.3826 46.9774 20.8384 46.9774 22.6911C46.9774 25.768 45.2497 27.9846 42.3586 28.6794C41.4772 28.911 40.5605 28.9772 38.8681 28.9772H30.1948V6.5127H37.8809C39.4675 6.5127 40.5252 6.57886 41.4772 6.81046C44.2625 7.50523 46.0959 9.29181 46.0959 12.1371C46.0959 13.659 45.5318 14.9493 44.5446 15.8095C44.1215 16.2065 43.5574 16.6697 42.6759 17.0336Z" fill="white"/>
<path d="M102.601 6.12622H105.754V7.00903H103.642V13.2832H102.633V6.12622H102.601Z" fill="white"/>
<path d="M105.565 10.6978C105.565 8.83757 106.384 8.01782 107.614 8.01782C108.781 8.01782 109.569 8.80604 109.569 10.6978V10.9815H106.574C106.637 12.1481 106.983 12.5895 107.929 12.5895C108.591 12.5895 109.033 12.3373 109.254 12.2111V13.1255C108.938 13.2831 108.528 13.4092 107.835 13.4092C106.384 13.3777 105.565 12.558 105.565 10.6978ZM106.542 10.1933H108.528C108.497 9.15286 108.119 8.80604 107.583 8.80604C107.047 8.80604 106.637 9.12133 106.542 10.1933Z" fill="white"/>
<path d="M110.546 8.0813H111.492V10.1937H113.447V8.0813H114.393V13.2835H113.447V10.9504H111.524V13.2835H110.578V8.0813H110.546Z" fill="white"/>
<path d="M115.464 10.6978C115.464 8.83757 116.284 8.01782 117.514 8.01782C118.68 8.01782 119.469 8.80604 119.469 10.6978V10.9815H116.473C116.536 12.1481 116.883 12.5895 117.829 12.5895C118.491 12.5895 118.933 12.3373 119.153 12.2111V13.1255C118.838 13.2831 118.428 13.4092 117.734 13.4092C116.284 13.3777 115.464 12.558 115.464 10.6978ZM116.442 10.1933H118.428C118.397 9.15286 118.018 8.80604 117.482 8.80604C116.946 8.80604 116.536 9.12133 116.442 10.1933Z" fill="white"/>
<path d="M120.478 8.08088H121.393V8.80604H121.424C121.739 8.30158 122.212 8.01782 122.78 8.01782C123.915 8.01782 124.672 8.77451 124.672 10.6978C124.672 12.558 123.852 13.3777 122.717 13.3777C122.181 13.3777 121.708 13.0939 121.456 12.621H121.424V15.4271H120.478V8.08088ZM123.631 10.6978C123.631 9.27897 123.158 8.80604 122.591 8.80604C122.023 8.80604 121.424 9.37356 121.424 10.6978C121.424 12.022 121.992 12.5895 122.528 12.5895C123.127 12.558 123.631 12.0535 123.631 10.6978Z" fill="white"/>
<path d="M125.365 11.8646C125.365 10.698 126.09 10.0675 128.013 10.0675H128.265V9.84677C128.265 9.05855 128.013 8.80632 127.445 8.80632C126.846 8.80632 126.468 8.96396 125.869 9.34231V8.42797C126.216 8.2388 126.752 7.98657 127.445 7.98657C128.707 7.98657 129.243 8.49103 129.243 9.81524V13.2834H128.328V12.5582H128.297C128.013 13.0312 127.603 13.378 126.878 13.378C125.932 13.378 125.365 12.8105 125.365 11.8646ZM128.297 11.234V10.7611H128.044C126.815 10.7611 126.405 11.171 126.405 11.8331C126.405 12.306 126.657 12.5582 127.13 12.5582C127.792 12.5582 128.297 12.0538 128.297 11.234Z" fill="white"/>
<path d="M129.873 13.3144V12.5262C129.968 12.5577 130.062 12.5577 130.189 12.5577C130.567 12.5577 130.756 12.3685 130.756 9.68857V8.04907H133.972V13.2828H133.026V8.86882H131.67V9.7201C131.67 12.9676 131.261 13.3774 130.409 13.3774C130.189 13.3774 130.031 13.3774 129.873 13.3144Z" fill="white"/>
<path d="M135.17 8.0813H136.116V10.0361H136.873C138.134 10.0361 138.733 10.6351 138.733 11.6756C138.733 12.6845 138.134 13.3151 136.873 13.3151H135.17V8.0813ZM136.904 10.7928H136.148V12.4953H136.904C137.44 12.4953 137.756 12.18 137.756 11.644C137.724 11.1081 137.409 10.7928 136.904 10.7928Z" fill="white"/>
<path d="M139.553 8.0813H140.499V10.1937H142.453V8.0813H143.399V13.2835H142.453V10.9504H140.53V13.2835H139.584V8.0813H139.553Z" fill="white"/>
<path d="M144.66 8.0813H145.606V10.0361H146.362C147.624 10.0361 148.223 10.6351 148.223 11.6756C148.223 12.6845 147.624 13.3151 146.362 13.3151H144.66V8.0813ZM146.394 10.7928H145.637V12.4953H146.394C146.93 12.4953 147.245 12.18 147.245 11.644C147.214 11.1081 146.93 10.7928 146.394 10.7928ZM149.011 8.0813H149.957V13.2835H149.011V8.0813Z" fill="white"/>
<path d="M151.218 8.0809H152.164V12.0535H152.196L153.867 8.0809H155.191V13.2831H154.245V9.31052H154.213L152.542 13.2831H151.218V8.0809ZM151.817 6.09459L152.606 6C152.669 6.4414 152.826 6.56752 153.205 6.56752C153.583 6.56752 153.741 6.4414 153.772 6L154.56 6.09459C154.497 7.00892 153.835 7.29268 153.173 7.29268C152.574 7.29268 151.88 7.04045 151.817 6.09459Z" fill="white"/>
<path d="M102.191 21.4175C102.191 19.6519 103.105 18.7375 104.682 18.7375C105.155 18.7375 105.47 18.8637 105.722 18.9267V19.8411C105.47 19.6834 105.155 19.5258 104.713 19.5258C103.799 19.5258 103.231 20.0933 103.231 21.4175C103.231 22.7417 103.799 23.3092 104.713 23.3092C105.186 23.3092 105.533 23.12 105.722 22.9939V23.9083C105.533 24.0028 105.155 24.0974 104.713 24.0974C103.105 24.0974 102.191 23.1831 102.191 21.4175Z" fill="white"/>
<path d="M106.542 18.801H110.42V24.0033H109.474V19.5892H107.52V24.0033H106.574V18.801H106.542Z" fill="white"/>
<path d="M111.429 21.4175C111.429 19.5888 112.312 18.7375 113.573 18.7375C114.835 18.7375 115.717 19.6204 115.717 21.4175C115.717 23.2462 114.835 24.0974 113.573 24.0974C112.312 24.0974 111.429 23.2146 111.429 21.4175ZM114.708 21.4175C114.708 19.9987 114.235 19.5258 113.605 19.5258C112.943 19.5258 112.47 19.9987 112.47 21.4175C112.47 22.8363 112.943 23.3092 113.605 23.3092C114.267 23.2777 114.708 22.8363 114.708 21.4175Z" fill="white"/>
<path d="M116.758 18.801H117.703V20.9135H119.658V18.801H120.604V24.0033H119.658V21.6701H117.703V24.0033H116.758V18.801Z" fill="white"/>
<path d="M121.644 21.4175C121.644 19.6519 122.559 18.7375 124.135 18.7375C124.608 18.7375 124.923 18.8637 125.176 18.9267V19.8411C124.923 19.6834 124.608 19.5258 124.167 19.5258C123.252 19.5258 122.685 20.0933 122.685 21.4175C122.685 22.7417 123.252 23.3092 124.167 23.3092C124.64 23.3092 124.986 23.12 125.176 22.9939V23.9083C124.986 24.0028 124.608 24.0974 124.167 24.0974C122.59 24.0974 121.644 23.1831 121.644 21.4175Z" fill="white"/>
<path d="M125.554 21.4175C125.554 19.5888 126.437 18.7375 127.698 18.7375C128.959 18.7375 129.842 19.6204 129.842 21.4175C129.842 23.2462 128.959 24.0974 127.698 24.0974C126.405 24.0974 125.554 23.2146 125.554 21.4175ZM128.801 21.4175C128.801 19.9987 128.328 19.5258 127.698 19.5258C127.036 19.5258 126.563 19.9987 126.563 21.4175C126.563 22.8363 127.036 23.3092 127.698 23.3092C128.36 23.2777 128.801 22.8363 128.801 21.4175Z" fill="white"/>
<path d="M130.851 18.8006H131.765V19.5258H131.796C132.112 19.0213 132.585 18.7375 133.152 18.7375C134.287 18.7375 135.044 19.4942 135.044 21.4175C135.044 23.2777 134.224 24.0974 133.089 24.0974C132.553 24.0974 132.08 23.8137 131.828 23.3407H131.796V26.1468H130.851V18.8006ZM134.035 21.4175C134.035 19.9987 133.562 19.5258 132.995 19.5258C132.427 19.5258 131.828 20.0933 131.828 21.4175C131.828 22.7417 132.395 23.3092 132.931 23.3092C133.499 23.2777 134.035 22.7732 134.035 21.4175Z" fill="white"/>
</svg>
